<?xml version="1.0" encoding="UTF-8" ?>
<!DOCTYPE svg PUBLIC "-//W3C//DTD SVG 1.1//EN" "http://www.w3.org/Graphics/SVG/1.1/DTD/svg11.dtd">
<svg width="30pt" height="23pt" viewBox="0 0 30 23" version="1.1" xmlns="http://www.w3.org/2000/svg">
<g id="#1d1b1dba">
<path fill="#1d1b1d" opacity="0.73" d=" M 7.61 3.40 C 10.03 2.31 12.14 0.14 15.01 0.45 C 17.63 0.13 19.70 1.88 21.85 3.05 C 24.06 4.31 27.09 3.48 28.99 5.33 C 29.60 10.44 29.33 15.67 28.93 20.79 C 27.50 23.15 24.32 22.20 22.02 22.49 C 15.44 22.17 8.76 23.03 2.23 22.01 C 1.90 21.71 1.25 21.10 0.92 20.79 C 0.21 15.40 0.19 9.82 1.22 4.46 C 3.35 4.14 5.56 4.11 7.61 3.40 M 10.58 3.63 C 8.27 5.37 5.38 5.66 2.58 5.84 C 2.40 10.75 2.28 15.66 2.37 20.57 C 10.77 20.86 19.19 20.82 27.59 20.60 C 27.80 15.67 27.83 10.75 27.50 5.83 C 24.68 5.67 21.77 5.34 19.44 3.59 C 16.85 1.59 13.14 1.62 10.58 3.63 Z" />
<path fill="#1d1b1d" opacity="0.73" d=" M 13.39 5.30 C 17.98 4.14 22.92 8.23 22.42 13.00 C 22.36 18.68 14.84 22.50 10.50 18.47 C 5.56 15.02 7.49 6.36 13.39 5.30 M 14.34 6.54 C 10.51 7.22 7.75 11.69 9.73 15.29 C 11.61 19.48 18.48 19.60 20.28 15.28 C 22.50 11.28 18.74 6.07 14.34 6.54 Z" />
<path fill="#1d1b1d" opacity="0.73" d=" M 13.22 7.77 C 17.04 5.96 21.76 10.75 19.76 14.56 C 18.35 17.87 13.45 18.81 11.18 15.85 C 8.54 13.35 10.13 9.04 13.22 7.77 M 14.19 9.05 C 12.72 9.43 11.76 10.81 11.25 12.15 C 11.13 15.45 15.75 17.96 17.81 14.76 C 20.37 12.38 17.24 8.18 14.19 9.05 Z" />
</g>
</svg>
